<?xml version="1.0" encoding="utf-8"?>
<!-- Generator: Adobe Illustrator 25.4.1, SVG Export Plug-In . SVG Version: 6.00 Build 0)  -->
<svg version="1.1" id="Calque_1" xmlns="http://www.w3.org/2000/svg" xmlns:xlink="http://www.w3.org/1999/xlink" x="0px" y="0px"
	 viewBox="0 0 2492.9 863" style="enable-background:new 0 0 2492.9 863;" xml:space="preserve">
<style type="text/css">
	.st0{fill:#FFFFFF;}
</style>
<g>
	<g>
		<g>
			<path class="st0" d="M507,306.7c-10.4-6.6-20.6-12.7-30.4-18.8c-4.9-35.5-19.3-105.5-26.9-129.6C480.5,133.3,483,90,470.5,54.7
				c-1.4-4-6.9-4.6-9.1-0.9c-5.6,9.6-12,17.3-18.5,23.6c6.1,4.4,10.3,10.8,11.8,18.8c0.5,2.8-3.3,3.9-4.2,1.2
				c-2.1-6.3-5.7-12.4-10.4-17.2c-6.2,5.6-12.3,9.7-17.3,12.7c6.3,3.6,11.6,8.9,14.5,15.7c0.7,1.7-1.4,3.9-2.8,2.2
				c-4.7-5.8-9.7-11.2-15.5-15.7c-3.6,1.9-6.3,3.1-7.7,3.6l0,0l1.5,2.4c-17.9-17.8-40.1-31.5-64.8-39.2c-9.8,9.3-21.7,6.3-23.2,4.9
				c8.7,0.7,17.2-1.8,21.6-8.5c9.2-14.2-5.7-26.4-5.7-26.4C342.1,51,311.3,54,311.3,54s16.2-14.7-2.7-30
				c3.1,24.3-46.9,34.9-46.9,34.9h0c-28.8,7-54.6,21.8-75,42.1l1.5-2.4l0,0c-1.4-0.5-4.1-1.7-7.7-3.6c-5.8,4.5-10.8,9.9-15.5,15.7
				c-1.4,1.7-3.6-0.5-2.8-2.2c3-6.8,8.2-12.1,14.5-15.7c-5-3-11.1-7.1-17.3-12.7c-4.7,4.9-8.3,10.9-10.4,17.2
				c-0.9,2.7-4.7,1.6-4.2-1.2c1.4-8,5.7-14.4,11.8-18.8c-6.4-6.2-12.9-14-18.5-23.6c-2.2-3.7-7.7-3.2-9.1,0.9
				c-12.5,35.2-10,78.3,20.6,103.4c-8.6,20.9-28.8,71.3-36.2,100.5c-2.3,2.6-4.6,5.1-6.9,7.7c-19.2,21.7-39.4,46.4-56.9,71.7
				c-48,69.6-56.8,118.8,2.7,181.7c36,38,24.8,36.8,19.5,97.4c-6.4,72.6-9.6,87.5-9.6,159.6c0,74.5,93.5,68.8,120.9,50.8
				c15.9-10.5,15.6-21.3,23-41.4c15.6-42.9,42.2-43.7,91.7-43.6c123.3,0.1,19.5,90.5,150,90.4c69.4-0.1,64.8-50.2,64.8-99
				c0-41.6-7.2-77-11.9-114.9c-18.6,2.4-107.7,57.8-139,74.9c-46.3,25.4-36.4,18.1-140-40.1c-19.2-10.8-74.9-39.1-87.7-51.8l-0.7-18
				c33.1,1.1,130.4,84.8,171.6,34.3c8.5-10.5,23.9-40.6,15.7-60.6c-6.2-15.2-72.1-40.4-102.7-57c-19.2-10.4-33.9-19.6-50-29.3
				c-44.3-26.8-36.5-24.3-25.7-120.2c0.3-3.1,5.7-7.9,10.1-5.7c31.3,16,125.9,77.5,157.9,94.1c26.1,13.5,47.4-10.8,79.5-39.9
				c12.3-11.2,59.7-51.1,78.4-54.5l-70.6,68.4c-34.3,35.3-14.6,74.1,22.8,87.2c36.2,12.7,61.8-16.9,92.9-41.8
				c13.1-10.6,25.7-21.2,38.4-32.1c10-8.6,25.4-27.3,24.5-48.7C574.6,345.1,530.3,321.4,507,306.7z M299.8,106.3
				c48.1,0,87.2,39,87.2,87.2c0,18.1-5.5,34.9-15,48.8h-0.4c-15.7,23-42,38-71.9,38s-56.3-15.1-71.9-38h-0.1
				c-9.5-13.9-15-30.7-15-48.8C212.6,145.4,251.6,106.3,299.8,106.3z"/>
			<path class="st0" d="M299.8,265.1c32.8,0,59.5-26.6,59.5-59.5c0-32.8-26.6-59.5-59.5-59.5c-32.8,0-59.5,26.6-59.5,59.5
				C240.3,238.5,267,265.1,299.8,265.1z M299.8,219.8c11.3,0,20.4,9.2,20.4,20.4c0,11.3-9.2,20.4-20.4,20.4
				c-11.3,0-20.4-9.1-20.4-20.4C279.4,228.9,288.5,219.8,299.8,219.8z"/>
		</g>
		<g>
			<path class="st0" d="M915.6,560.3c-5.9,13.3-13.8,24.8-23.9,34.5c-10.1,9.8-21.8,17.3-35.1,22.5c-13.4,5.3-27.6,7.9-42.6,7.9
				c-14.8,0-28.9-2.6-42.2-7.8c-13.3-5.2-24.9-12.5-34.8-22c-10-9.5-17.8-20.8-23.6-34c-5.8-13.2-8.6-27.7-8.6-43.5
				c0-16.8,3-31.9,9.1-45.2c6-13.4,14.2-24.7,24.4-34c10.2-9.3,22.2-16.4,36-21.4c13.8-5,28.2-7.5,43.5-7.5
				c16.6,0,31.5,2.9,44.6,8.8c13.2,5.9,24.3,13.7,33.5,23.6c9.2,9.9,16.2,21.2,21.1,34.1c4.9,12.9,7.3,26.3,7.3,40.4
				C924.4,532.6,921.5,547,915.6,560.3z M883.6,481.3c-3-12.1-7.6-23.1-13.8-32.9c-6.1-9.9-13.8-17.9-23-24
				c-9.2-6.1-20-9.2-32.5-9.2c-12.7,0-23.7,3.1-32.9,9.2c-9.3,6.1-16.9,14.1-22.8,23.9c-6,9.8-10.3,20.8-13.2,33.2
				c-2.8,12.4-4.2,24.9-4.2,37.6c0,13.3,1.6,26.1,4.7,38.4c3.1,12.3,7.8,23.1,13.9,32.5c6.1,9.4,13.9,16.9,23.1,22.5
				c9.3,5.7,20.1,8.5,32.4,8.5c12.3,0,23-3.1,32.1-9.4c9.1-6.2,16.6-14.3,22.7-24.2c6-9.9,10.6-20.9,13.6-33.2
				c3-12.3,4.5-24.6,4.5-36.9C888.1,505.4,886.6,493.4,883.6,481.3z"/>
			<path class="st0" d="M1152.2,560.3c-5.9,13.3-13.8,24.8-23.9,34.5c-10.1,9.8-21.8,17.3-35.1,22.5c-13.4,5.3-27.6,7.9-42.6,7.9
				c-14.8,0-28.9-2.6-42.2-7.8c-13.3-5.2-24.9-12.5-34.8-22c-10-9.5-17.8-20.8-23.6-34c-5.8-13.2-8.6-27.7-8.6-43.5
				c0-16.8,3-31.9,9.1-45.2c6-13.4,14.2-24.7,24.4-34c10.2-9.3,22.2-16.4,36-21.4c13.8-5,28.2-7.5,43.5-7.5
				c16.6,0,31.5,2.9,44.6,8.8c13.2,5.9,24.3,13.7,33.5,23.6c9.2,9.9,16.2,21.2,21.1,34.1c4.9,12.9,7.3,26.3,7.3,40.4
				C1161,532.6,1158,547,1152.2,560.3z M1120.1,481.3c-3-12.1-7.6-23.1-13.8-32.9c-6.1-9.9-13.8-17.9-23-24
				c-9.2-6.1-20-9.2-32.5-9.2c-12.7,0-23.7,3.1-32.9,9.2c-9.3,6.1-16.9,14.1-22.8,23.9c-6,9.8-10.3,20.8-13.2,33.2
				c-2.8,12.4-4.2,24.9-4.2,37.6c0,13.3,1.6,26.1,4.7,38.4c3.1,12.3,7.8,23.1,13.9,32.5c6.1,9.4,13.9,16.9,23.1,22.5
				c9.3,5.7,20.1,8.5,32.4,8.5c12.3,0,23-3.1,32.1-9.4c9.1-6.2,16.6-14.3,22.7-24.2c6-9.9,10.6-20.9,13.6-33.2
				c3-12.3,4.5-24.6,4.5-36.9C1124.7,505.4,1123.2,493.4,1120.1,481.3z"/>
			<path class="st0" d="M1339.3,623.8c-0.8-0.4-1.7-0.9-2.6-1.6c-1-0.7-2.1-1.7-3.2-3.1c-12.5-14.4-24.4-28.2-35.6-41.1
				c-11.2-13-22.9-26.1-35-39.4c-5.1-5.7-8.5-9.2-10.4-10.5c-1.9-1.4-3.5-2-4.8-2c-1.6,0-2.6,0.3-3.1,1c-0.5,0.7-1,1.8-1.6,3.4
				c0,10.2,0,19.8,0,29c0,9,0.1,16.7,0.3,23.1c0.2,5.7,0.6,10.9,1.2,15.8c0.6,4.9,1.9,8.6,3.8,11.1c1.4,2,3.2,3.6,5.6,5
				c2.3,1.4,4.9,2.5,7.6,3.4c2.7,0.9,5.4,1.6,8.1,2.1c2.6,0.5,4.9,0.8,6.9,1v2.9h-94v-2.9c4.9-0.8,9.6-1.9,14-3.5
				c4.5-1.6,7.9-3.7,10.2-6.4c1-1.2,1.8-2.9,2.3-5.3c0.6-2.3,1-5,1.3-8.1c0.3-3,0.5-6.2,0.6-9.7c0.1-3.4,0.1-6.7,0.1-9.8
				c0-2.7,0-6.4,0.1-11.1c0.1-4.7,0.1-9.8,0.1-15.2c0-5.7,0-11.4,0-17.3c0-6,0-11.7,0-17v-57.1c0-7.4-0.2-14.2-0.7-20.5
				c-0.5-6.2-1.8-10.7-4-13.5c-2.7-3.3-6-5.8-10-7.3c-3.9-1.6-8.4-2.6-13.5-3.2v-2.9h90.8v2.9c-3.7,0.4-7.3,0.9-10.8,1.6
				c-3.5,0.7-6.6,2.2-9.4,4.4c-2.7,2.2-5,5.6-6.9,10.1c-1.9,4.5-2.9,10.8-3.1,19c-0.2,4.5-0.3,8.7-0.4,12.6
				c-0.1,3.9-0.1,8.4-0.1,13.5c0,5.1,0,11.2,0,18.4c0,7,0,16,0,26.9c3.5-2.1,8.2-5.8,14.2-11c5.9-5.2,12.2-11,18.7-17.4
				c6.5-6.4,13-13.1,19.5-19.9c6.4-6.8,12-12.8,16.7-17.9c3.3-3.9,6.3-7.9,8.9-12c2.6-4.1,3.9-7.8,3.9-11.1c0-5.7-2-9.8-5.9-12.3
				c-3.9-2.5-8.4-4.2-13.5-5v-2.9h78.5v2.9c-10,1-20,5.2-30.2,12.6c-10.2,7.4-20.5,16-31,25.8c-4.1,3.7-8.3,7.7-12.6,12
				c-4.3,4.3-8.5,8.6-12.7,12.9c-4.2,4.3-8.3,8.4-12.3,12.4c-4,4-7.7,7.8-11,11.3c1.6,2,5.2,6.2,10.8,12.7
				c5.7,6.5,12.4,14.2,20.2,23c7.8,8.8,16.1,18.2,25,28.1c8.9,10,17.4,19.5,25.6,28.7c2,2.3,4.2,4.7,6.7,7c2.5,2.3,5,4.4,7.3,6.3
				c2.3,1.9,4.4,3.5,6.1,4.8c1.8,1.4,2.9,2.2,3.5,2.3c2.5,1,6,2,10.4,2.9c4.4,1,9.3,1.7,14.8,2v2.9H1339.3z"/>
			<path class="st0" d="M1542.2,626.6c-13.1,0-23.8-3.4-32.3-10.2c-8.4-6.8-14-16.4-16.8-28.8h-1l-9.5,36.2h-13.9l56.7-269.8h16.5
				c-15.1,72.6-24.5,116-28.1,130.2h1c10.8-18,22.3-31.3,34.5-39.8c12.3-8.5,25.6-12.7,40.1-12.7c32.5,0,48.7,21.7,48.7,65
				c0,23.5-4.4,45.4-13.2,65.9c-8.8,20.5-20.4,36.2-34.9,47.3C1575.6,621.1,1559.6,626.6,1542.2,626.6z M1585.5,447.3
				c-10.5,0-20.9,3.6-31.2,10.7c-10.3,7.1-19.6,16.9-27.8,29.4s-14.4,26.1-18.5,40.8c-4,14.7-6.1,26.6-6.1,35.7
				c0,14.9,3.7,26.6,11.1,35.1c7.4,8.5,17,12.7,28.8,12.7c14.3,0,27.3-4.8,38.8-14.4s21-23.8,28.4-42.5
				c7.4-18.7,11.1-37.5,11.1-56.4c0-17.6-2.8-30.5-8.5-38.8C1606.1,451.4,1597.3,447.3,1585.5,447.3z"/>
			<path class="st0" d="M1712.3,435.3l-26.4,121c-2.5,12.3-3.8,21.4-3.8,27.4c0,8.6,2.7,15.3,8.2,20.4c5.5,5,13.5,7.5,24,7.5
				c12.7,0,24.7-3.8,36-11.4c11.3-7.6,20.8-18.4,28.4-32.4c7.7-14,13.4-30.2,17.3-48.5l18.2-84.1h17l-40.1,188.5h-13.9l4.9-35.5h-1
				c-19.3,25.6-42.6,38.3-69.9,38.3c-15.1,0-26.6-3.6-34.4-10.8c-7.8-7.2-11.7-17.6-11.7-31.4c0-6.9,1.3-16.8,3.8-29.5l26-119.7
				H1712.3z"/>
			<path class="st0" d="M1959.2,572.7c0,16.6-6,29.9-17.9,39.8c-11.9,9.9-28.1,14.8-48.6,14.8c-20,0-37.6-4.3-52.9-13v-18.6
				c8.6,5.3,17.4,9.4,26.5,12.3c9.1,2.9,17.7,4.3,25.7,4.3c16,0,28.1-3.3,36.6-10c8.4-6.6,12.7-16.1,12.7-28.4
				c0-4.9-0.9-9.1-2.7-12.8c-1.8-3.7-4.7-7.2-8.7-10.7c-4-3.4-11.6-8.3-23-14.8c-17.1-9.2-28.7-17.7-34.7-25.2c-6-7.6-9-16.8-9-27.7
				c0-14.8,5.7-26.9,17.1-36.3c11.4-9.4,26.4-14.1,45-14.1c8.7,0,17.8,1,27.5,3c9.7,2,17.8,4.7,24.4,8.1l-6.1,15.3
				c-15.7-7.4-31-11.1-45.8-11.1c-13.4,0-24.2,3.1-32.3,9.2c-8.1,6.1-12.1,14.1-12.1,23.9c0,6.4,1,11.4,2.9,15.3
				c2,3.8,5.5,7.8,10.5,11.9c5,4.1,11.9,8.5,20.7,13.3c13.2,7.3,22.5,13.3,28,18c5.5,4.7,9.5,9.7,12.1,15S1959.2,565.6,1959.2,572.7
				z"/>
			<path class="st0" d="M2090.4,435.3l-3.1,14h-49.1l-23.4,110.1c-2.5,11.4-3.8,20.9-3.8,28.4c0,16.1,7.3,24.1,21.8,24.1
				c7.9,0,16.7-1.5,26.4-4.5v14.9c-11.7,3.2-21.5,4.9-29.5,4.9c-11.4,0-20.3-3.1-26.5-9.4c-6.2-6.3-9.4-15.5-9.4-27.5
				c0-8.4,1.7-20.3,5-35.7l22.4-105.3h-31.6l2.4-11.6l31.9-3l16.8-43.9h9.5l-9.5,44.4H2090.4z"/>
			<path class="st0" d="M2149.3,627.3c-20,0-35.6-6.3-46.8-19c-11.2-12.7-16.8-30.3-16.8-53c0-20.9,4.1-41,12.3-60.2
				c8.2-19.2,19.5-34.4,33.9-45.8c14.4-11.3,30.3-17,47.6-17c13.2,0,23.7,3.5,31.6,10.6c7.9,7.1,11.8,16.6,11.8,28.8
				c0,20.9-9.4,36.9-28.4,47.9c-18.9,11-47,16.5-84.2,16.5h-5.7c-0.7,5.1-1,10.8-1,17c0,19.1,4.3,33.6,12.8,43.6
				c8.6,10,20.9,15,36.9,15c15.3,0,31.2-4.2,47.9-12.7v16.3C2185,623.3,2167.7,627.3,2149.3,627.3z M2177.4,447.3
				c-15.1,0-29.2,6.7-42.2,20c-13,13.4-22.4,31.2-28.2,53.5h8.5c59.8,0,89.7-15.6,89.7-46.8c0-7.7-2.5-14.1-7.5-19.2
				C2192.6,449.8,2185.9,447.3,2177.4,447.3z"/>
			<path class="st0" d="M2343.7,432c8,0,15.1,0.8,21.3,2.4l-3.6,16.1c-5.4-1.7-12-2.6-19.6-2.6c-10.9,0-21.2,3.7-31,11.1
				c-9.8,7.4-18.7,18.5-26.5,33.3c-7.9,14.8-13.6,30.8-17.3,48l-17.3,83.4h-17l40.1-188.5h13.9l-5,35.4h1
				c8.4-10.9,15.6-18.7,21.3-23.5c5.8-4.8,11.9-8.5,18.5-11.2S2336,432,2343.7,432z M2464.2,572.6c0,16.6-5.9,29.8-17.8,39.6
				c-11.9,9.8-28,14.8-48.3,14.8c-19.9,0-37.5-4.3-52.7-12.9v-18.5c8.5,5.3,17.3,9.4,26.4,12.3c9.1,2.9,17.6,4.3,25.6,4.3
				c15.9,0,28-3.3,36.4-9.9c8.4-6.6,12.6-16,12.6-28.2c0-4.8-0.9-9.1-2.7-12.8c-1.8-3.7-4.7-7.2-8.6-10.6c-4-3.4-11.6-8.3-22.9-14.8
				c-17-9.2-28.5-17.6-34.5-25.1c-6-7.5-9-16.7-9-27.5c0-14.7,5.7-26.8,17-36.2c11.3-9.4,26.3-14.1,44.8-14.1c8.6,0,17.8,1,27.4,3
				c9.6,2,17.7,4.7,24.3,8l-6,15.2c-15.7-7.4-30.8-11-45.6-11c-13.4,0-24.1,3.1-32.1,9.2c-8.1,6.1-12.1,14-12.1,23.8
				c0,6.3,1,11.4,2.9,15.2c2,3.8,5.4,7.7,10.4,11.8c5,4.1,11.9,8.5,20.6,13.2c13.1,7.3,22.4,13.2,27.9,17.9
				c5.5,4.7,9.5,9.6,12.1,14.9C2462.9,559.4,2464.2,565.6,2464.2,572.6z"/>
		</g>
		<path class="st0" d="M673.7,545.2c-3.2-6.1-7.5-11.5-12.9-16c-5.4-4.5-11.5-8.1-18.3-10.7c-6.8-2.6-13.8-4.3-20.8-5.1v-1.2
			c13.3-2.7,24.1-8.1,32.3-16s12.4-18.3,12.4-31.2c0-11.7-3.2-21.4-9.7-29c-6.4-7.6-14.6-13.3-24.6-17c-6.2-2.3-12.7-4-19.5-4.8
			c-6.7-0.9-13.8-1.3-21.2-1.3h-98.7v2.9c5.3,0.6,9.4,1.4,12.3,2.5c2.9,1.1,5.9,3.2,8.8,6.3c1.2,1.2,2.1,3.1,2.8,5.7
			c0.7,2.6,1.3,5.6,1.8,8.9c0.5,3.3,0.8,6.8,1,10.4c0.2,3.6,0.3,7.2,0.3,10.7c0,5.9,0,11,0.1,15.5c0.1,4.5,0.1,8.9,0.1,13.2
			c0,4.1,0,8.4,0,12.9c0,4.5,0,9.7,0,15.5c0,5.3,0,10.9,0,17c0,5.9-0.1,11.6-0.1,17.1c-0.1,5.6-0.2,10.7-0.3,15.4
			c-0.1,4.7-0.1,8.4-0.1,11.1c0,3.1-0.1,6.3-0.3,9.5c-0.2,3.2-0.5,6.3-1,9.2c-0.5,2.9-1,5.5-1.6,7.8c-0.6,2.2-1.4,4-2.3,5.1
			c-2.7,3.1-6.3,5.6-10.7,7.3l0,0l-12.7,6.7h99.8c8.6,0,17.5-0.3,26.6-0.9c9.2-0.6,17.5-2.2,24.9-5c4.3-1.6,8.6-3.9,12.9-6.9
			c4.3-3,8.2-6.7,11.7-11c3.5-4.3,6.3-9.3,8.5-14.9c2.1-5.7,3.2-12,3.2-19C678.5,558.4,676.9,551.4,673.7,545.2z M552,504.4
			c0-5.3,0-11.5,0-18.7c0-7.4,0-15.2,0.1-23.4c0.1-8.2,0.2-15.7,0.4-22.5c0.2-3.5,0.3-6.3,0.4-8.5c0.1-2.1,0.2-4,0.3-5.4
			c0.1-1.5,0.2-2.7,0.4-3.7c0.2-1,0.4-2.1,0.6-3.2c1.8-0.6,4.3-1.1,7.6-1.5c3.3-0.4,7-0.6,11.1-0.6c13.7,0,24.9,2,33.7,5.9
			c7.4,3.3,13.6,8.8,18.6,16.4c5,7.6,7.5,16.3,7.5,26.1c0,13.3-4.5,24.4-13.6,33.4c-9.1,9-22.4,14-40,14.9
			c-2.7,0.2-6.3,0.3-10.8,0.3c-4.5,0-10,0-16.4,0C552,512.8,552,509.7,552,504.4z M637.5,595c-4.5,7.1-10.8,12.8-19,17.1
			c-6.2,3.3-12.7,5.4-19.3,6.1c-6.6,0.8-12.8,1.2-18.4,1.2c-6.6,0-11.7-0.7-15.2-2.2c-3.5-1.5-6.2-3.3-7.9-5.4
			c-2.3-3.1-3.8-7.1-4.2-11.9c-0.5-4.8-0.8-10.9-1-18.3c0-3.3,0-7.3-0.1-11.9c-0.1-4.6-0.1-9.6-0.1-15.1c0-5.7,0-11.6,0-17.9
			c0-6.2,0-12.5,0-18.7h28.4c5.7,0,10.6,0.2,14.8,0.7c4.2,0.5,8.4,1.4,12.7,2.8c5.3,1.8,10.1,4.2,14.5,7.2c4.4,3,8.2,6.6,11.4,10.8
			c3.2,4.2,5.8,8.8,7.6,13.8c1.9,5,2.8,10.3,2.8,16C644.3,579.3,642,587.9,637.5,595z"/>
	</g>
</g>
</svg>
