<svg xmlns="http://www.w3.org/2000/svg" viewBox="0 0 59.21 85.34"><g id="Calque_2" data-name="Calque 2"><g id="Calque_1-2" data-name="Calque 1"><path d="M52,29.6c-1.08-.68-2.16-1.33-3.19-2A124.33,124.33,0,0,0,46,14.07c3.23-2.63,3.49-7.16,2.18-10.85a.52.52,0,0,0-.95-.09,11.11,11.11,0,0,1-1.94,2.46,3,3,0,0,1,1.23,2,.23.23,0,0,1-.44.12A4.88,4.88,0,0,0,45,5.87,11.25,11.25,0,0,1,43.15,7.2a3.56,3.56,0,0,1,1.52,1.64c.08.18-.15.42-.3.23a9.67,9.67,0,0,0-1.62-1.64,6.91,6.91,0,0,1-.8.37h0l.16.25A16.82,16.82,0,0,0,35.32,4a2.19,2.19,0,0,1-2.43.51,2.33,2.33,0,0,0,2.26-.89c1-1.49-.6-2.76-.6-2.76.16,2-3.07,2.33-3.07,2.33A2,2,0,0,0,31.2,0c.32,2.55-4.92,3.65-4.92,3.65h0a16.87,16.87,0,0,0-7.86,4.41l.16-.25h0a6.91,6.91,0,0,1-.8-.37,10.06,10.06,0,0,0-1.62,1.64c-.15.19-.37-.05-.3-.23A3.56,3.56,0,0,1,17.39,7.2a11.71,11.71,0,0,1-1.81-1.33,5,5,0,0,0-1.09,1.81.23.23,0,0,1-.44-.12,3,3,0,0,1,1.23-2,11.41,11.41,0,0,1-1.94-2.46.52.52,0,0,0-.95.09c-1.3,3.68-1.05,8.2,2.15,10.83a97.61,97.61,0,0,0-3.78,10.52l-.72.8a81.44,81.44,0,0,0-6,7.52c-5,7.29-5.95,12.44.28,19,3.77,4,2.6,3.86,2,10.2-.67,7.61-1,9.17-1,16.71,0,7.8,9.79,7.21,12.66,5.31,1.67-1.09,1.64-2.22,2.41-4.33,1.64-4.5,4.41-4.58,9.6-4.57,12.91,0,2,9.48,15.71,9.46,7.27,0,6.78-5.26,6.78-10.37,0-4.35-.75-8.06-1.25-12-1.94.24-11.27,6-14.55,7.84-4.84,2.66-3.81,1.9-14.66-4.2-2-1.13-7.84-4.09-9.18-5.42l-.08-1.89c3.47.11,13.66,8.89,18,3.59.9-1.1,2.51-4.25,1.65-6.34-.65-1.6-7.55-4.24-10.75-6-2-1.09-3.56-2-5.24-3.07-4.64-2.8-3.83-2.54-2.69-12.58,0-.32.6-.83,1.06-.6C18.1,35.34,28,41.78,31.37,43.52c2.73,1.42,5-1.13,8.32-4.18C41,38.17,45.94,34,47.9,33.63L40.5,40.8c-3.59,3.69-1.52,7.75,2.39,9.13s6.48-1.77,9.73-4.39c1.37-1.1,2.69-2.21,4-3.35a6.92,6.92,0,0,0,2.56-5.11C59.05,33.62,54.41,31.15,52,29.6Zm-21.7-21a9.12,9.12,0,0,1,9.13,9.12,9,9,0,0,1-1.57,5.11h0a9.11,9.11,0,0,1-15.07,0h0a9,9,0,0,1-1.57-5.11A9.12,9.12,0,0,1,30.27,8.63Z"/><path d="M30.27,25.25A6.23,6.23,0,1,0,24.05,19,6.23,6.23,0,0,0,30.27,25.25Zm0-4.75a2.14,2.14,0,1,1-2.14,2.14A2.14,2.14,0,0,1,30.27,20.5Z"/></g></g></svg>