<?xml version="1.0" standalone="no"?>
<!DOCTYPE svg PUBLIC "-//W3C//DTD SVG 20010904//EN"
 "http://www.w3.org/TR/2001/REC-SVG-20010904/DTD/svg10.dtd">
<svg version="1.0" xmlns="http://www.w3.org/2000/svg"
 width="200.000000pt" height="200.000000pt" viewBox="0 0 200.000000 200.000000"
 preserveAspectRatio="xMidYMid meet">

<g transform="translate(0.000000,200.000000) scale(0.100000,-0.100000)"
fill="#ffffff" stroke="none">
<path d="M185 1696 c-37 -16 -70 -52 -84 -89 -6 -16 -11 -80 -11 -143 l0 -114
40 0 40 0 0 115 c0 110 1 117 25 140 23 24 30 25 140 25 l115 0 0 40 0 40
-117 0 c-76 -1 -129 -6 -148 -14z"/>
<path d="M1570 1671 l0 -41 115 0 c110 0 117 -1 140 -25 24 -23 25 -30 25
-140 l0 -115 41 0 41 0 -4 129 c-3 141 -10 159 -72 205 -24 18 -45 21 -157 24
l-129 4 0 -41z"/>
<path d="M330 1290 l0 -180 40 0 40 0 0 180 0 180 -40 0 -40 0 0 -180z"/>
<path d="M490 1290 l0 -180 80 0 80 0 0 180 0 180 -80 0 -80 0 0 -180z"/>
<path d="M730 1290 l0 -180 40 0 40 0 0 180 0 180 -40 0 -40 0 0 -180z"/>
<path d="M890 1290 l0 -180 40 0 40 0 0 180 0 180 -40 0 -40 0 0 -180z"/>
<path d="M1050 1290 l0 -180 80 0 80 0 0 180 0 180 -80 0 -80 0 0 -180z"/>
<path d="M1290 1290 l0 -180 40 0 40 0 0 180 0 180 -40 0 -40 0 0 -180z"/>
<path d="M1450 1290 l0 -180 40 0 40 0 0 180 0 180 -40 0 -40 0 0 -180z"/>
<path d="M1610 1290 l0 -180 40 0 40 0 0 180 0 180 -40 0 -40 0 0 -180z"/>
<path fill="#bb0000" d="M182 1018 c-16 -16 -15 -43 2 -57 10 -8 235 -10 831 -9 766 3 819 4
829 20 8 13 8 23 0 35 -10 17 -63 18 -831 21 -629 2 -822 -1 -831 -10z"/>
<path d="M330 690 l0 -180 40 0 40 0 0 180 0 180 -40 0 -40 0 0 -180z"/>
<path d="M490 690 l0 -180 80 0 80 0 0 180 0 180 -80 0 -80 0 0 -180z"/>
<path d="M730 690 l0 -180 40 0 40 0 0 180 0 180 -40 0 -40 0 0 -180z"/>
<path d="M890 690 l0 -180 40 0 40 0 0 180 0 180 -40 0 -40 0 0 -180z"/>
<path d="M1050 690 l0 -180 80 0 80 0 0 180 0 180 -80 0 -80 0 0 -180z"/>
<path d="M1290 690 l0 -180 40 0 40 0 0 180 0 180 -40 0 -40 0 0 -180z"/>
<path d="M1450 690 l0 -180 40 0 40 0 0 180 0 180 -40 0 -40 0 0 -180z"/>
<path d="M1610 690 l0 -180 40 0 40 0 0 180 0 180 -40 0 -40 0 0 -180z"/>
<path d="M92 501 c3 -141 10 -159 72 -205 24 -18 45 -21 157 -24 l129 -4 0 41
0 41 -115 0 c-110 0 -117 1 -140 25 -24 23 -25 30 -25 140 l0 115 -41 0 -41 0
4 -129z"/>
<path d="M1850 515 c0 -110 -1 -117 -25 -140 -23 -24 -30 -25 -140 -25 l-115
0 0 -41 0 -41 129 4 c112 3 133 6 157 24 62 46 69 64 72 205 l4 129 -41 0 -41
0 0 -115z"/>
</g>
</svg>
